# xmcd
#
# Track frame offsets:
#	150
#	18466
#	41982
#	78244
#	98653
#	123797
#	148774
#	166811
#	190591
#	217119
#
# Disc length: 2962 seconds
#
# Revision: 1
# Processed by: cddbd v1.5.2PL0 Copyright (c) Steve Scherf et al.
# Submitted via: audiograbber 1.83.01
#
DISCID=810b900a
DTITLE=James Brown - I'm Real (Expanded) [Explicit] - D2
DYEAR=2015
DGENRE=
TTITLE0=Static (Single Version)
TTITLE1=Static (Full Force Remix)
TTITLE2=No Static (The 8 Minute Full Force Def Mix) [Explicit]
TTITLE3=I'm Real (Single Version)
TTITLE4=I'm Real (Special Version)
TTITLE5=Real (Full Force Hyped-Up Mix)
TTITLE6=Time to Get Busy (Single Version)
TTITLE7=Time to Get Busy (Full Force Remix)
TTITLE8=Busy J.B. (Time to Get Get Mix)
TTITLE9=Tribute (Special Version)
EXTD=
EXTT0=
EXTT1=
EXTT2=
EXTT3=
EXTT4=
EXTT5=
EXTT6=
EXTT7=
EXTT8=
EXTT9=
PLAYORDER=
